<mxfile host="app.diagrams.net" modified="2023-06-27T11:17:54.431Z" agent="Mozilla/5.0 (Windows NT 10.0; Win64; x64) AppleWebKit/537.36 (KHTML, like Gecko) Chrome/114.0.0.0 Safari/537.36" etag="Ty-O7zpBnoMX1Jht6hhN" version="21.5.0" type="device">
  <diagram name="Page-1" id="NC4vRK6mdpGnLLVGb3P4">
    <mxGraphModel dx="893" dy="1019" grid="0" gridSize="10" guides="1" tooltips="1" connect="1" arrows="1" fold="1" page="0" pageScale="1" pageWidth="827" pageHeight="1169" math="0" shadow="0">
      <root>
        <mxCell id="0" />
        <mxCell id="1" parent="0" />
        <mxCell id="gbQtY_ryqxysPiND2ugP-1" value="Branch" style="whiteSpace=wrap;html=1;align=center;fontSize=16;fillColor=#dae8fc;strokeColor=#6c8ebf;" vertex="1" parent="1">
          <mxGeometry x="-163" y="117" width="100" height="40" as="geometry" />
        </mxCell>
        <mxCell id="gbQtY_ryqxysPiND2ugP-2" value="Customer" style="whiteSpace=wrap;html=1;align=center;fontSize=16;fillColor=#dae8fc;strokeColor=#6c8ebf;" vertex="1" parent="1">
          <mxGeometry x="357" y="117" width="100" height="40" as="geometry" />
        </mxCell>
        <mxCell id="gbQtY_ryqxysPiND2ugP-3" value="Account" style="whiteSpace=wrap;html=1;align=center;fontSize=16;fillColor=#dae8fc;strokeColor=#6c8ebf;" vertex="1" parent="1">
          <mxGeometry x="107" y="-31" width="100" height="40" as="geometry" />
        </mxCell>
        <mxCell id="gbQtY_ryqxysPiND2ugP-4" value="Employee" style="whiteSpace=wrap;html=1;align=center;fontSize=16;fillColor=#dae8fc;strokeColor=#6c8ebf;" vertex="1" parent="1">
          <mxGeometry x="105" y="282.5" width="100" height="40" as="geometry" />
        </mxCell>
        <mxCell id="gbQtY_ryqxysPiND2ugP-5" value="city" style="ellipse;whiteSpace=wrap;html=1;align=center;fontSize=16;fillColor=#fff2cc;strokeColor=#d6b656;" vertex="1" parent="1">
          <mxGeometry x="-288" y="72" width="100" height="40" as="geometry" />
        </mxCell>
        <mxCell id="gbQtY_ryqxysPiND2ugP-6" value="uniqueName" style="ellipse;whiteSpace=wrap;html=1;align=center;fontStyle=4;fontSize=16;fillColor=#ffe6cc;strokeColor=#d79b00;" vertex="1" parent="1">
          <mxGeometry x="-288" y="159" width="100" height="40" as="geometry" />
        </mxCell>
        <mxCell id="gbQtY_ryqxysPiND2ugP-7" value="customer&lt;br&gt;ID" style="ellipse;whiteSpace=wrap;html=1;align=center;fontStyle=4;fontSize=16;fillColor=#ffe6cc;strokeColor=#d79b00;" vertex="1" parent="1">
          <mxGeometry x="414" y="25" width="100" height="40" as="geometry" />
        </mxCell>
        <mxCell id="gbQtY_ryqxysPiND2ugP-8" value="name" style="ellipse;whiteSpace=wrap;html=1;align=center;fontSize=16;fillColor=#fff2cc;strokeColor=#d6b656;" vertex="1" parent="1">
          <mxGeometry x="510" y="77" width="100" height="40" as="geometry" />
        </mxCell>
        <mxCell id="gbQtY_ryqxysPiND2ugP-9" value="address" style="ellipse;whiteSpace=wrap;html=1;align=center;fontSize=16;fillColor=#fff2cc;strokeColor=#d6b656;" vertex="1" parent="1">
          <mxGeometry x="510" y="147" width="100" height="40" as="geometry" />
        </mxCell>
        <mxCell id="gbQtY_ryqxysPiND2ugP-11" value="telephone&lt;br&gt;Number" style="ellipse;shape=doubleEllipse;margin=3;whiteSpace=wrap;html=1;align=center;fontSize=16;fillColor=#fff2cc;strokeColor=#d6b656;" vertex="1" parent="1">
          <mxGeometry x="453" y="211" width="109" height="47" as="geometry" />
        </mxCell>
        <mxCell id="gbQtY_ryqxysPiND2ugP-12" value="account&lt;br&gt;Number" style="ellipse;whiteSpace=wrap;html=1;align=center;fontStyle=4;fontSize=16;fillColor=#ffe6cc;strokeColor=#d79b00;" vertex="1" parent="1">
          <mxGeometry x="-3" y="-87" width="100" height="40" as="geometry" />
        </mxCell>
        <mxCell id="gbQtY_ryqxysPiND2ugP-13" value="employee&lt;br&gt;Number" style="ellipse;whiteSpace=wrap;html=1;align=center;fontStyle=4;fontSize=16;fillColor=#ffe6cc;strokeColor=#d79b00;" vertex="1" parent="1">
          <mxGeometry x="331" y="268" width="100" height="40" as="geometry" />
        </mxCell>
        <mxCell id="gbQtY_ryqxysPiND2ugP-14" value="name" style="ellipse;whiteSpace=wrap;html=1;align=center;fontSize=16;fillColor=#fff2cc;strokeColor=#d6b656;" vertex="1" parent="1">
          <mxGeometry x="307" y="318" width="100" height="40" as="geometry" />
        </mxCell>
        <mxCell id="gbQtY_ryqxysPiND2ugP-15" value="address" style="ellipse;whiteSpace=wrap;html=1;align=center;fontSize=16;fillColor=#fff2cc;strokeColor=#d6b656;" vertex="1" parent="1">
          <mxGeometry x="-32" y="298" width="100" height="40" as="geometry" />
        </mxCell>
        <mxCell id="gbQtY_ryqxysPiND2ugP-17" value="telephone&lt;br&gt;Number" style="ellipse;shape=doubleEllipse;margin=3;whiteSpace=wrap;html=1;align=center;fontSize=16;fillColor=#fff2cc;strokeColor=#d6b656;" vertex="1" parent="1">
          <mxGeometry x="-22" y="358" width="108" height="49" as="geometry" />
        </mxCell>
        <mxCell id="gbQtY_ryqxysPiND2ugP-18" value="LengthOf&lt;br&gt;Employee" style="ellipse;whiteSpace=wrap;html=1;align=center;dashed=1;fontSize=16;fillColor=#fff2cc;strokeColor=#d6b656;" vertex="1" parent="1">
          <mxGeometry x="223" y="353.5" width="100" height="40" as="geometry" />
        </mxCell>
        <mxCell id="gbQtY_ryqxysPiND2ugP-19" value="is_associated" style="shape=rhombus;perimeter=rhombusPerimeter;whiteSpace=wrap;html=1;align=center;fontSize=16;fillColor=#d5e8d4;strokeColor=#82b366;" vertex="1" parent="1">
          <mxGeometry x="273" y="187" width="120" height="60" as="geometry" />
        </mxCell>
        <mxCell id="gbQtY_ryqxysPiND2ugP-20" value="" style="endArrow=none;html=1;rounded=0;fontSize=12;startSize=8;endSize=8;curved=1;entryX=0.43;entryY=0.975;entryDx=0;entryDy=0;entryPerimeter=0;" edge="1" parent="1" source="gbQtY_ryqxysPiND2ugP-19" target="gbQtY_ryqxysPiND2ugP-2">
          <mxGeometry relative="1" as="geometry">
            <mxPoint x="141" y="186" as="sourcePoint" />
            <mxPoint x="301" y="186" as="targetPoint" />
          </mxGeometry>
        </mxCell>
        <mxCell id="gbQtY_ryqxysPiND2ugP-22" value="" style="endArrow=none;html=1;rounded=0;fontSize=12;startSize=8;endSize=8;curved=1;" edge="1" parent="1" source="gbQtY_ryqxysPiND2ugP-4" target="gbQtY_ryqxysPiND2ugP-19">
          <mxGeometry relative="1" as="geometry">
            <mxPoint x="399" y="343" as="sourcePoint" />
            <mxPoint x="397" y="270" as="targetPoint" />
          </mxGeometry>
        </mxCell>
        <mxCell id="gbQtY_ryqxysPiND2ugP-24" value="has" style="shape=rhombus;perimeter=rhombusPerimeter;whiteSpace=wrap;html=1;align=center;fontSize=16;fillColor=#d5e8d4;strokeColor=#82b366;" vertex="1" parent="1">
          <mxGeometry x="97" y="107" width="120" height="60" as="geometry" />
        </mxCell>
        <mxCell id="gbQtY_ryqxysPiND2ugP-25" value="work" style="shape=rhombus;perimeter=rhombusPerimeter;whiteSpace=wrap;html=1;align=center;fontSize=16;fillColor=#d5e8d4;strokeColor=#82b366;" vertex="1" parent="1">
          <mxGeometry x="-59" y="187" width="120" height="60" as="geometry" />
        </mxCell>
        <mxCell id="gbQtY_ryqxysPiND2ugP-26" value="" style="endArrow=none;html=1;rounded=0;fontSize=12;startSize=8;endSize=8;curved=1;exitX=1;exitY=0.5;exitDx=0;exitDy=0;entryX=0;entryY=0.5;entryDx=0;entryDy=0;" edge="1" parent="1" source="gbQtY_ryqxysPiND2ugP-24" target="gbQtY_ryqxysPiND2ugP-2">
          <mxGeometry relative="1" as="geometry">
            <mxPoint x="141" y="186" as="sourcePoint" />
            <mxPoint x="301" y="186" as="targetPoint" />
          </mxGeometry>
        </mxCell>
        <mxCell id="gbQtY_ryqxysPiND2ugP-27" value="" style="endArrow=none;html=1;rounded=0;fontSize=12;startSize=8;endSize=8;curved=1;exitX=1;exitY=0.5;exitDx=0;exitDy=0;" edge="1" parent="1" source="gbQtY_ryqxysPiND2ugP-1" target="gbQtY_ryqxysPiND2ugP-24">
          <mxGeometry relative="1" as="geometry">
            <mxPoint x="227" y="147" as="sourcePoint" />
            <mxPoint x="367" y="147" as="targetPoint" />
          </mxGeometry>
        </mxCell>
        <mxCell id="gbQtY_ryqxysPiND2ugP-28" value="" style="endArrow=none;html=1;rounded=0;fontSize=12;startSize=8;endSize=8;curved=1;exitX=0.5;exitY=1;exitDx=0;exitDy=0;" edge="1" parent="1" source="gbQtY_ryqxysPiND2ugP-1" target="gbQtY_ryqxysPiND2ugP-25">
          <mxGeometry relative="1" as="geometry">
            <mxPoint x="141" y="186" as="sourcePoint" />
            <mxPoint x="301" y="186" as="targetPoint" />
          </mxGeometry>
        </mxCell>
        <mxCell id="gbQtY_ryqxysPiND2ugP-29" value="" style="endArrow=none;html=1;rounded=0;fontSize=12;startSize=8;endSize=8;curved=1;" edge="1" parent="1" source="gbQtY_ryqxysPiND2ugP-25" target="gbQtY_ryqxysPiND2ugP-4">
          <mxGeometry relative="1" as="geometry">
            <mxPoint x="-103" y="167" as="sourcePoint" />
            <mxPoint x="93" y="280" as="targetPoint" />
          </mxGeometry>
        </mxCell>
        <mxCell id="gbQtY_ryqxysPiND2ugP-30" value="startDate" style="ellipse;whiteSpace=wrap;html=1;align=center;fontSize=16;fillColor=#fff2cc;strokeColor=#d6b656;" vertex="1" parent="1">
          <mxGeometry x="-140" y="242.5" width="100" height="40" as="geometry" />
        </mxCell>
        <mxCell id="gbQtY_ryqxysPiND2ugP-31" value="" style="endArrow=none;html=1;rounded=0;fontSize=12;startSize=8;endSize=8;curved=1;" edge="1" parent="1" source="gbQtY_ryqxysPiND2ugP-30" target="gbQtY_ryqxysPiND2ugP-25">
          <mxGeometry relative="1" as="geometry">
            <mxPoint x="141" y="186" as="sourcePoint" />
            <mxPoint x="301" y="186" as="targetPoint" />
          </mxGeometry>
        </mxCell>
        <mxCell id="gbQtY_ryqxysPiND2ugP-32" value="" style="endArrow=none;html=1;rounded=0;fontSize=12;startSize=8;endSize=8;curved=1;" edge="1" parent="1" source="gbQtY_ryqxysPiND2ugP-5" target="gbQtY_ryqxysPiND2ugP-1">
          <mxGeometry relative="1" as="geometry">
            <mxPoint x="141" y="186" as="sourcePoint" />
            <mxPoint x="301" y="186" as="targetPoint" />
          </mxGeometry>
        </mxCell>
        <mxCell id="gbQtY_ryqxysPiND2ugP-33" value="" style="endArrow=none;html=1;rounded=0;fontSize=12;startSize=8;endSize=8;curved=1;" edge="1" parent="1" source="gbQtY_ryqxysPiND2ugP-6" target="gbQtY_ryqxysPiND2ugP-1">
          <mxGeometry relative="1" as="geometry">
            <mxPoint x="-112" y="87" as="sourcePoint" />
            <mxPoint x="-106" y="127" as="targetPoint" />
          </mxGeometry>
        </mxCell>
        <mxCell id="gbQtY_ryqxysPiND2ugP-34" value="" style="endArrow=none;html=1;rounded=0;fontSize=12;startSize=8;endSize=8;curved=1;" edge="1" parent="1" source="gbQtY_ryqxysPiND2ugP-7" target="gbQtY_ryqxysPiND2ugP-2">
          <mxGeometry relative="1" as="geometry">
            <mxPoint x="141" y="186" as="sourcePoint" />
            <mxPoint x="301" y="186" as="targetPoint" />
          </mxGeometry>
        </mxCell>
        <mxCell id="gbQtY_ryqxysPiND2ugP-35" value="" style="endArrow=none;html=1;rounded=0;fontSize=12;startSize=8;endSize=8;curved=1;" edge="1" parent="1" source="gbQtY_ryqxysPiND2ugP-8" target="gbQtY_ryqxysPiND2ugP-2">
          <mxGeometry relative="1" as="geometry">
            <mxPoint x="374" y="92" as="sourcePoint" />
            <mxPoint x="401" y="127" as="targetPoint" />
          </mxGeometry>
        </mxCell>
        <mxCell id="gbQtY_ryqxysPiND2ugP-36" value="" style="endArrow=none;html=1;rounded=0;fontSize=12;startSize=8;endSize=8;curved=1;" edge="1" parent="1" source="gbQtY_ryqxysPiND2ugP-2" target="gbQtY_ryqxysPiND2ugP-9">
          <mxGeometry relative="1" as="geometry">
            <mxPoint x="384" y="102" as="sourcePoint" />
            <mxPoint x="411" y="137" as="targetPoint" />
          </mxGeometry>
        </mxCell>
        <mxCell id="gbQtY_ryqxysPiND2ugP-37" value="" style="endArrow=none;html=1;rounded=0;fontSize=12;startSize=8;endSize=8;curved=1;entryX=0;entryY=0;entryDx=0;entryDy=0;" edge="1" parent="1" source="gbQtY_ryqxysPiND2ugP-2" target="gbQtY_ryqxysPiND2ugP-11">
          <mxGeometry relative="1" as="geometry">
            <mxPoint x="467" y="144" as="sourcePoint" />
            <mxPoint x="517" y="140" as="targetPoint" />
          </mxGeometry>
        </mxCell>
        <mxCell id="gbQtY_ryqxysPiND2ugP-38" value="" style="endArrow=none;html=1;rounded=0;fontSize=12;startSize=8;endSize=8;curved=1;" edge="1" parent="1" source="gbQtY_ryqxysPiND2ugP-4" target="gbQtY_ryqxysPiND2ugP-13">
          <mxGeometry relative="1" as="geometry">
            <mxPoint x="477" y="154" as="sourcePoint" />
            <mxPoint x="527" y="150" as="targetPoint" />
          </mxGeometry>
        </mxCell>
        <mxCell id="gbQtY_ryqxysPiND2ugP-39" value="" style="endArrow=none;html=1;rounded=0;fontSize=12;startSize=8;endSize=8;curved=1;" edge="1" parent="1" source="gbQtY_ryqxysPiND2ugP-4" target="gbQtY_ryqxysPiND2ugP-14">
          <mxGeometry relative="1" as="geometry">
            <mxPoint x="439" y="357" as="sourcePoint" />
            <mxPoint x="485" y="324" as="targetPoint" />
          </mxGeometry>
        </mxCell>
        <mxCell id="gbQtY_ryqxysPiND2ugP-40" value="" style="endArrow=none;html=1;rounded=0;fontSize=12;startSize=8;endSize=8;curved=1;" edge="1" parent="1" source="gbQtY_ryqxysPiND2ugP-4" target="gbQtY_ryqxysPiND2ugP-15">
          <mxGeometry relative="1" as="geometry">
            <mxPoint x="460" y="372" as="sourcePoint" />
            <mxPoint x="520" y="365" as="targetPoint" />
          </mxGeometry>
        </mxCell>
        <mxCell id="gbQtY_ryqxysPiND2ugP-41" value="" style="endArrow=none;html=1;rounded=0;fontSize=12;startSize=8;endSize=8;curved=1;" edge="1" parent="1" source="gbQtY_ryqxysPiND2ugP-4" target="gbQtY_ryqxysPiND2ugP-18">
          <mxGeometry relative="1" as="geometry">
            <mxPoint x="460" y="390" as="sourcePoint" />
            <mxPoint x="520" y="406" as="targetPoint" />
          </mxGeometry>
        </mxCell>
        <mxCell id="gbQtY_ryqxysPiND2ugP-42" value="" style="endArrow=none;html=1;rounded=0;fontSize=12;startSize=8;endSize=8;curved=1;" edge="1" parent="1" source="gbQtY_ryqxysPiND2ugP-4" target="gbQtY_ryqxysPiND2ugP-17">
          <mxGeometry relative="1" as="geometry">
            <mxPoint x="434" y="397" as="sourcePoint" />
            <mxPoint x="495" y="447" as="targetPoint" />
          </mxGeometry>
        </mxCell>
        <mxCell id="gbQtY_ryqxysPiND2ugP-43" value="" style="endArrow=none;html=1;rounded=0;fontSize=12;startSize=8;endSize=8;curved=1;" edge="1" parent="1" source="gbQtY_ryqxysPiND2ugP-12" target="gbQtY_ryqxysPiND2ugP-3">
          <mxGeometry relative="1" as="geometry">
            <mxPoint x="141" y="186" as="sourcePoint" />
            <mxPoint x="301" y="186" as="targetPoint" />
          </mxGeometry>
        </mxCell>
        <mxCell id="gbQtY_ryqxysPiND2ugP-44" value="offer" style="shape=rhombus;perimeter=rhombusPerimeter;whiteSpace=wrap;html=1;align=center;fontSize=16;fillColor=#d5e8d4;strokeColor=#82b366;" vertex="1" parent="1">
          <mxGeometry x="-28" y="25" width="120" height="60" as="geometry" />
        </mxCell>
        <mxCell id="gbQtY_ryqxysPiND2ugP-45" value="has" style="shape=rhombus;perimeter=rhombusPerimeter;whiteSpace=wrap;html=1;align=center;fontSize=16;fillColor=#d5e8d4;strokeColor=#82b366;" vertex="1" parent="1">
          <mxGeometry x="234" y="25" width="120" height="60" as="geometry" />
        </mxCell>
        <mxCell id="gbQtY_ryqxysPiND2ugP-46" value="" style="endArrow=none;html=1;rounded=0;fontSize=12;startSize=8;endSize=8;curved=1;" edge="1" parent="1" source="gbQtY_ryqxysPiND2ugP-44" target="gbQtY_ryqxysPiND2ugP-3">
          <mxGeometry relative="1" as="geometry">
            <mxPoint x="86" y="-32" as="sourcePoint" />
            <mxPoint x="124" y="-14" as="targetPoint" />
          </mxGeometry>
        </mxCell>
        <mxCell id="gbQtY_ryqxysPiND2ugP-47" value="" style="endArrow=none;html=1;rounded=0;fontSize=12;startSize=8;endSize=8;curved=1;exitX=0.75;exitY=0;exitDx=0;exitDy=0;" edge="1" parent="1" source="gbQtY_ryqxysPiND2ugP-1" target="gbQtY_ryqxysPiND2ugP-44">
          <mxGeometry relative="1" as="geometry">
            <mxPoint x="141" y="108" as="sourcePoint" />
            <mxPoint x="301" y="108" as="targetPoint" />
          </mxGeometry>
        </mxCell>
        <mxCell id="gbQtY_ryqxysPiND2ugP-48" value="" style="endArrow=none;html=1;rounded=0;fontSize=12;startSize=8;endSize=8;curved=1;" edge="1" parent="1" source="gbQtY_ryqxysPiND2ugP-45" target="gbQtY_ryqxysPiND2ugP-2">
          <mxGeometry relative="1" as="geometry">
            <mxPoint x="-78" y="127" as="sourcePoint" />
            <mxPoint x="12" y="80" as="targetPoint" />
          </mxGeometry>
        </mxCell>
        <mxCell id="gbQtY_ryqxysPiND2ugP-51" value="" style="shape=link;html=1;rounded=0;fontSize=12;startSize=8;endSize=8;curved=1;" edge="1" parent="1" source="gbQtY_ryqxysPiND2ugP-3" target="gbQtY_ryqxysPiND2ugP-45">
          <mxGeometry relative="1" as="geometry">
            <mxPoint x="209" y="3" as="sourcePoint" />
            <mxPoint x="369" y="3" as="targetPoint" />
          </mxGeometry>
        </mxCell>
        <mxCell id="gbQtY_ryqxysPiND2ugP-53" value="" style="triangle;whiteSpace=wrap;html=1;fontSize=16;rotation=90;fillColor=#e1d5e7;strokeColor=#9673a6;" vertex="1" parent="1">
          <mxGeometry x="137.5" y="-135" width="39" height="63" as="geometry" />
        </mxCell>
        <mxCell id="gbQtY_ryqxysPiND2ugP-54" value="" style="triangle;whiteSpace=wrap;html=1;fontSize=16;rotation=-90;fillColor=#e1d5e7;strokeColor=#9673a6;" vertex="1" parent="1">
          <mxGeometry x="130" y="360" width="44" height="62" as="geometry" />
        </mxCell>
        <mxCell id="gbQtY_ryqxysPiND2ugP-55" value="" style="endArrow=none;html=1;rounded=0;fontSize=12;startSize=8;endSize=8;curved=1;" edge="1" parent="1" source="gbQtY_ryqxysPiND2ugP-4" target="gbQtY_ryqxysPiND2ugP-54">
          <mxGeometry relative="1" as="geometry">
            <mxPoint x="122" y="333" as="sourcePoint" />
            <mxPoint x="49" y="366" as="targetPoint" />
          </mxGeometry>
        </mxCell>
        <mxCell id="gbQtY_ryqxysPiND2ugP-56" value="" style="endArrow=none;html=1;rounded=0;fontSize=12;startSize=8;endSize=8;curved=1;" edge="1" parent="1" source="gbQtY_ryqxysPiND2ugP-58" target="gbQtY_ryqxysPiND2ugP-54">
          <mxGeometry relative="1" as="geometry">
            <mxPoint x="164" y="333" as="sourcePoint" />
            <mxPoint x="163" y="380" as="targetPoint" />
          </mxGeometry>
        </mxCell>
        <mxCell id="gbQtY_ryqxysPiND2ugP-57" value="loanOfficer" style="whiteSpace=wrap;html=1;align=center;fontSize=16;fillColor=#dae8fc;strokeColor=#6c8ebf;" vertex="1" parent="1">
          <mxGeometry x="10" y="448" width="100" height="40" as="geometry" />
        </mxCell>
        <mxCell id="gbQtY_ryqxysPiND2ugP-58" value="personal&lt;br&gt;Banker" style="whiteSpace=wrap;html=1;align=center;fontSize=16;fillColor=#dae8fc;strokeColor=#6c8ebf;" vertex="1" parent="1">
          <mxGeometry x="205" y="448" width="100" height="40" as="geometry" />
        </mxCell>
        <mxCell id="gbQtY_ryqxysPiND2ugP-59" value="" style="endArrow=none;html=1;rounded=0;fontSize=12;startSize=8;endSize=8;curved=1;" edge="1" parent="1" source="gbQtY_ryqxysPiND2ugP-54" target="gbQtY_ryqxysPiND2ugP-57">
          <mxGeometry relative="1" as="geometry">
            <mxPoint x="238" y="458" as="sourcePoint" />
            <mxPoint x="191" y="423" as="targetPoint" />
          </mxGeometry>
        </mxCell>
        <mxCell id="gbQtY_ryqxysPiND2ugP-60" value="ISA" style="text;html=1;strokeColor=none;fillColor=none;align=center;verticalAlign=middle;whiteSpace=wrap;rounded=0;fontSize=16;" vertex="1" parent="1">
          <mxGeometry x="125" y="384" width="60" height="30" as="geometry" />
        </mxCell>
        <mxCell id="gbQtY_ryqxysPiND2ugP-62" value="" style="endArrow=none;html=1;rounded=0;fontSize=12;startSize=8;endSize=8;curved=1;" edge="1" parent="1" source="gbQtY_ryqxysPiND2ugP-53" target="gbQtY_ryqxysPiND2ugP-3">
          <mxGeometry relative="1" as="geometry">
            <mxPoint x="86" y="-32" as="sourcePoint" />
            <mxPoint x="122" y="-19" as="targetPoint" />
          </mxGeometry>
        </mxCell>
        <mxCell id="gbQtY_ryqxysPiND2ugP-63" value="current&lt;br&gt;Account" style="whiteSpace=wrap;html=1;align=center;fontSize=16;fillColor=#dae8fc;strokeColor=#6c8ebf;" vertex="1" parent="1">
          <mxGeometry x="-6" y="-195" width="100" height="40" as="geometry" />
        </mxCell>
        <mxCell id="gbQtY_ryqxysPiND2ugP-64" value="savings&lt;br&gt;Account" style="whiteSpace=wrap;html=1;align=center;fontSize=16;fillColor=#dae8fc;strokeColor=#6c8ebf;" vertex="1" parent="1">
          <mxGeometry x="228" y="-197" width="100" height="40" as="geometry" />
        </mxCell>
        <mxCell id="gbQtY_ryqxysPiND2ugP-65" value="" style="endArrow=none;html=1;rounded=0;fontSize=12;startSize=8;endSize=8;curved=1;" edge="1" parent="1" source="gbQtY_ryqxysPiND2ugP-63" target="gbQtY_ryqxysPiND2ugP-53">
          <mxGeometry relative="1" as="geometry">
            <mxPoint x="168" y="-75" as="sourcePoint" />
            <mxPoint x="171" y="-21" as="targetPoint" />
          </mxGeometry>
        </mxCell>
        <mxCell id="gbQtY_ryqxysPiND2ugP-66" value="" style="endArrow=none;html=1;rounded=0;fontSize=12;startSize=8;endSize=8;curved=1;" edge="1" parent="1" source="gbQtY_ryqxysPiND2ugP-64" target="gbQtY_ryqxysPiND2ugP-53">
          <mxGeometry relative="1" as="geometry">
            <mxPoint x="86" y="-145" as="sourcePoint" />
            <mxPoint x="136" y="-113" as="targetPoint" />
          </mxGeometry>
        </mxCell>
        <mxCell id="gbQtY_ryqxysPiND2ugP-67" value="ISA" style="text;html=1;strokeColor=none;fillColor=none;align=center;verticalAlign=middle;whiteSpace=wrap;rounded=0;fontSize=16;" vertex="1" parent="1">
          <mxGeometry x="125" y="-126" width="60" height="30" as="geometry" />
        </mxCell>
        <mxCell id="gbQtY_ryqxysPiND2ugP-68" value="M" style="text;html=1;strokeColor=none;fillColor=none;align=center;verticalAlign=middle;whiteSpace=wrap;rounded=0;fontSize=16;" vertex="1" parent="1">
          <mxGeometry x="-66" y="112" width="60" height="30" as="geometry" />
        </mxCell>
        <mxCell id="gbQtY_ryqxysPiND2ugP-69" value="N" style="text;html=1;strokeColor=none;fillColor=none;align=center;verticalAlign=middle;whiteSpace=wrap;rounded=0;fontSize=16;" vertex="1" parent="1">
          <mxGeometry x="307" y="112" width="60" height="30" as="geometry" />
        </mxCell>
        <mxCell id="gbQtY_ryqxysPiND2ugP-70" value="M" style="text;html=1;strokeColor=none;fillColor=none;align=center;verticalAlign=middle;whiteSpace=wrap;rounded=0;fontSize=16;" vertex="1" parent="1">
          <mxGeometry x="65" y="-5" width="60" height="30" as="geometry" />
        </mxCell>
        <mxCell id="gbQtY_ryqxysPiND2ugP-71" value="1" style="text;html=1;strokeColor=none;fillColor=none;align=center;verticalAlign=middle;whiteSpace=wrap;rounded=0;fontSize=16;" vertex="1" parent="1">
          <mxGeometry x="-119" y="91" width="60" height="30" as="geometry" />
        </mxCell>
        <mxCell id="gbQtY_ryqxysPiND2ugP-73" value="N" style="text;html=1;strokeColor=none;fillColor=none;align=center;verticalAlign=middle;whiteSpace=wrap;rounded=0;fontSize=16;" vertex="1" parent="1">
          <mxGeometry x="354" y="87" width="60" height="30" as="geometry" />
        </mxCell>
        <mxCell id="gbQtY_ryqxysPiND2ugP-74" value="M" style="text;html=1;strokeColor=none;fillColor=none;align=center;verticalAlign=middle;whiteSpace=wrap;rounded=0;fontSize=16;" vertex="1" parent="1">
          <mxGeometry x="192" y="-13" width="60" height="30" as="geometry" />
        </mxCell>
        <mxCell id="gbQtY_ryqxysPiND2ugP-75" value="1" style="text;html=1;strokeColor=none;fillColor=none;align=center;verticalAlign=middle;whiteSpace=wrap;rounded=0;fontSize=16;" vertex="1" parent="1">
          <mxGeometry x="-143" y="157" width="60" height="30" as="geometry" />
        </mxCell>
        <mxCell id="gbQtY_ryqxysPiND2ugP-76" value="M" style="text;html=1;strokeColor=none;fillColor=none;align=center;verticalAlign=middle;whiteSpace=wrap;rounded=0;fontSize=16;" vertex="1" parent="1">
          <mxGeometry x="61" y="270" width="60" height="30" as="geometry" />
        </mxCell>
        <mxCell id="gbQtY_ryqxysPiND2ugP-77" value="M" style="text;html=1;strokeColor=none;fillColor=none;align=center;verticalAlign=middle;whiteSpace=wrap;rounded=0;fontSize=16;" vertex="1" parent="1">
          <mxGeometry x="377" y="157" width="60" height="30" as="geometry" />
        </mxCell>
        <mxCell id="gbQtY_ryqxysPiND2ugP-78" value="1" style="text;html=1;strokeColor=none;fillColor=none;align=center;verticalAlign=middle;whiteSpace=wrap;rounded=0;fontSize=16;" vertex="1" parent="1">
          <mxGeometry x="190" y="268" width="60" height="30" as="geometry" />
        </mxCell>
      </root>
    </mxGraphModel>
  </diagram>
</mxfile>
